# File created by Blade
# Date/Time:  Wed Jan 21 17:21:31 2015
# Frame Rate: 120.000 fps
#------------------------------------------------------
:FULLY-SPECIFIED
:DEGREES
243
root 19.926087 33.248619 -20.027606 -175.115305 13.733092 -177.792023
Spine 47.466557 14.324432 -1.516175
Head 4.307715 -1.629098 3.327095
LeftShoulder 4.192460 -28.255945 -1.032619
LeftArm 4.481753 28.638697 -73.728421
LeftForeArm -1.579570 -0.000000 7.331101
LeftHand -1.273560 -0.000000 2.230573
LeftHandThumb1 -26.253704 0.000000 33.147579
RightShoulder 6.550676 -1.497010 3.028519
RightArm 38.322874 -7.260534 63.243549
RightForeArm -22.144659 0.000000 17.224162
RightHand -1.381217 0.000000 -8.841506
RightHandThumb1 -24.326973 -0.000000 -32.862282
LeftUpLeg -33.611654 2.579628 -2.754109
LeftLeg 11.689168 -0.000000 -0.000000
LeftFoot -6.312085 28.919824 -8.031135
LeftToeBase 17.670446 -0.000000 -0.000000
RightUpLeg -11.112073 -2.302510 10.629352
RightLeg 34.911499 -0.000000 -0.000000
RightFoot -47.476486 -23.829486 21.522763
RightToeBase 22.717366 -0.000000 -0.000000
244
root 19.907885 33.230126 -20.137559 -174.399880 13.770724 -177.940216
Spine 47.761701 14.438273 -1.779232
Head 3.618462 -1.683079 3.345335
LeftShoulder 4.642081 -28.732405 -1.005158
LeftArm 5.026469 28.517880 -73.408127
LeftForeArm -1.577841 -0.000000 7.554388
LeftHand -1.169639 -0.000000 2.214480
LeftHandThumb1 -26.253704 0.000000 33.147579
RightShoulder 6.802494 -1.198138 2.951818
RightArm 38.686983 -7.132849 63.205571
RightForeArm -22.149732 -0.000000 17.157453
RightHand -1.679426 -0.000000 -9.536947
RightHandThumb1 -24.326973 -0.000000 -32.862282
LeftUpLeg -34.273863 2.384665 -2.905104
LeftLeg 11.595722 -0.000000 -0.000000
LeftFoot -5.767036 29.172971 -7.458247
LeftToeBase 17.845702 -0.000000 -0.000000
RightUpLeg -11.704352 -2.090701 10.444998
RightLeg 34.994406 -0.000000 -0.000000
RightFoot -47.717666 -23.881137 21.552708
RightToeBase 22.717085 -0.000000 -0.000000
245
root 19.895311 33.218709 -20.243855 -173.636506 13.762619 -178.082516
Spine 48.048146 14.525971 -2.057148
Head 2.887025 -1.746931 3.415443
LeftShoulder 5.185252 -29.218791 -0.991136
LeftArm 5.555790 28.270789 -73.045501
LeftForeArm -1.518661 -0.000000 7.787931
LeftHand -1.197908 -0.000000 2.619693
LeftHandThumb1 -26.253704 0.000000 33.147579
RightShoulder 7.069139 -0.918411 2.913575
RightArm 39.066631 -6.798275 63.317688
RightForeArm -22.115787 -0.000000 17.087934
RightHand -1.496097 -0.000000 -9.573092
RightHandThumb1 -24.326973 -0.000000 -32.862282
LeftUpLeg -35.006018 2.145283 -3.007654
LeftLeg 11.604550 -0.000000 -0.000000
LeftFoot -5.423879 29.201981 -7.127027
LeftToeBase 18.217538 -0.000000 -0.000000
RightUpLeg -12.315419 -1.949904 10.271327
RightLeg 34.999600 -0.000000 -0.000000
RightFoot -47.911474 -23.875151 21.587733
RightToeBase 22.734112 -0.000000 -0.000000
246
root 19.884401 33.209593 -20.350294 -172.822849 13.814417 -178.209383
Spine 48.311135 14.698937 -2.317174
Head 2.174198 -1.804439 3.508726
LeftShoulder 5.788320 -29.733488 -0.999757
LeftArm 6.069205 28.016813 -72.691229
LeftForeArm -1.470039 -0.000000 7.984110
LeftHand -1.161922 -0.000000 2.806540
LeftHandThumb1 -26.253704 0.000000 33.147579
RightShoulder 7.308206 -0.623129 2.826958
RightArm 39.441680 -6.536109 63.400812
RightForeArm -22.070565 -0.000000 17.018559
RightHand -1.649425 -0.000000 -10.080496
RightHandThumb1 -24.326973 -0.000000 -32.862282
LeftUpLeg -35.801842 2.091905 -3.190603
LeftLeg 11.646116 -0.000000 -0.000000
LeftFoot -4.818504 29.247501 -6.737022
LeftToeBase 18.378454 -0.000000 -0.000000
RightUpLeg -12.955749 -1.679890 10.119932
RightLeg 34.982895 -0.000000 -0.000000
RightFoot -48.105832 -23.968860 21.617563
RightToeBase 22.819556 -0.000000 -0.000000
247
root 19.881140 33.203426 -20.454116 -171.942165 13.862145 -178.296266
Spine 48.516835 14.874101 -2.580783
Head 1.449814 -1.896317 3.599816
LeftShoulder 6.425977 -30.186372 -0.985007
LeftArm 6.628414 27.697549 -72.293745
LeftForeArm -1.506339 -0.000000 8.160579
LeftHand -1.099866 0.000000 2.887386
LeftHandThumb1 -26.253704 0.000000 33.147579
RightShoulder 7.583688 -0.324741 2.708039
RightArm 39.755225 -6.245239 63.562113
RightForeArm -21.977908 -0.000000 17.036289
RightHand -1.851252 -0.000000 -10.568086
RightHandThumb1 -24.326973 -0.000000 -32.862282
LeftUpLeg -36.653129 2.066629 -3.321692
LeftLeg 11.716815 -0.000000 -0.000000
LeftFoot -4.141969 29.440561 -6.577175
LeftToeBase 18.535345 -0.000000 -0.000000
RightUpLeg -13.617529 -1.350017 10.020831
RightLeg 34.891262 -0.000000 -0.000000
RightFoot -48.269352 -24.117325 21.673172
RightToeBase 22.819086 -0.000000 -0.000000
248
root 19.869111 33.203027 -20.560686 -171.029764 13.907393 -178.389554
Spine 48.736177 14.999433 -2.858296
Head 0.671034 -1.902217 3.675310
LeftShoulder 7.020016 -30.708344 -0.999702
LeftArm 7.174254 27.457856 -71.885450
LeftForeArm -1.651040 0.000000 8.302001
LeftHand -1.040773 -0.000000 3.156116
LeftHandThumb1 -26.253704 0.000000 33.147579
RightShoulder 7.848945 -0.021837 2.582181
RightArm 40.140512 -6.093215 63.553319
RightForeArm -21.650378 0.000000 16.971138
RightHand -1.743355 -0.000000 -11.053609
RightHandThumb1 -24.326973 -0.000000 -32.862282
LeftUpLeg -37.559906 2.047625 -3.487354
LeftLeg 11.919182 -0.000000 -0.000000
LeftFoot -3.426861 29.756691 -6.549026
LeftToeBase 18.460410 -0.000000 -0.000000
RightUpLeg -14.288528 -1.045416 9.888921
RightLeg 34.746798 -0.000000 -0.000000
RightFoot -48.406811 -24.258130 21.701586
RightToeBase 22.880597 -0.000000 -0.000000
249
root 19.861200 33.209294 -20.673033 -170.141809 13.983242 -178.464098
Spine 49.010290 15.183931 -3.091352
Head -0.099256 -1.993056 3.739085
LeftShoulder 7.759846 -31.343925 -1.106322
LeftArm 7.574848 27.236272 -71.491571
LeftForeArm -1.692888 -0.000000 8.424953
LeftHand -1.007204 0.000000 3.187931
LeftHandThumb1 -26.253704 0.000000 33.147579
RightShoulder 8.156955 0.374355 2.434300
RightArm 40.360325 -5.743034 63.767871
RightForeArm -21.431145 -0.000000 17.017547
RightHand -1.458146 -0.000000 -11.167442
RightHandThumb1 -24.326973 -0.000000 -32.862282
LeftUpLeg -38.449675 2.267868 -3.745933
LeftLeg 12.157699 -0.000000 -0.000000
LeftFoot -2.863296 29.896451 -6.587195
LeftToeBase 18.330133 -0.000000 -0.000000
RightUpLeg -14.895226 -0.740501 9.765822
RightLeg 34.545095 -0.000000 -0.000000
RightFoot -48.485324 -24.372795 21.755799
RightToeBase 22.905711 -0.000000 -0.000000
250
root 19.861258 33.217656 -20.780669 -169.165785 14.009635 -178.454770
Spine 49.244698 15.292602 -3.281292
Head -0.951922 -2.030445 3.799976
LeftShoulder 8.426770 -31.903779 -1.163863
LeftArm 8.115426 27.121945 -71.037742
LeftForeArm -1.895437 -0.000000 8.460918
LeftHand -1.015953 -0.000000 3.703882
LeftHandThumb1 -26.253704 0.000000 33.147579
RightShoulder 8.447624 0.808747 2.217269
RightArm 40.610545 -5.577231 63.927554
RightForeArm -21.201955 -0.000000 17.065447
RightHand -1.740129 0.000000 -11.701769
RightHandThumb1 -24.326973 -0.000000 -32.862282
LeftUpLeg -39.411533 2.496250 -3.962612
LeftLeg 12.369648 -0.000000 -0.000000
LeftFoot -2.531044 29.977515 -6.637194
LeftToeBase 18.621786 -0.000000 -0.000000
RightUpLeg -15.541664 -0.375413 9.748236
RightLeg 34.269618 -0.000000 -0.000000
RightFoot -48.554485 -24.585016 21.863833
RightToeBase 22.881368 -0.000000 -0.000000
251
root 19.864563 33.226379 -20.887327 -168.101032 14.089671 -178.387431
Spine 49.394782 15.476412 -3.446208
Head -1.767687 -2.039451 3.882281
LeftShoulder 9.132488 -32.451925 -1.250508
LeftArm 8.682293 26.870699 -70.580305
LeftForeArm -2.033528 -0.000000 8.373471
LeftHand -0.830888 0.000000 3.842188
LeftHandThumb1 -26.253704 0.000000 33.147579
RightShoulder 8.722936 1.190142 1.997287
RightArm 40.882974 -5.450973 63.984615
RightForeArm -20.778714 -0.000000 17.133592
RightHand -1.722247 -0.000000 -11.963596
RightHandThumb1 -24.326973 -0.000000 -32.862282
LeftUpLeg -40.525231 2.917770 -4.211018
LeftLeg 12.717413 -0.000000 -0.000000
LeftFoot -2.344472 29.719624 -6.375712
LeftToeBase 19.481726 -0.000000 -0.000000
RightUpLeg -16.231599 0.020867 9.768755
RightLeg 33.937339 -0.000000 -0.000000
RightFoot -48.561690 -24.790692 21.887752
RightToeBase 22.928407 -0.000000 -0.000000
252
root 19.863689 33.238378 -20.996668 -167.038455 14.189173 -178.328730
Spine 49.558424 15.674794 -3.637193
Head -2.629969 -2.078486 4.003593
LeftShoulder 9.933670 -33.048108 -1.341456
LeftArm 9.119713 26.479304 -70.188352
LeftForeArm -2.045450 -0.000000 8.317312
LeftHand -0.896298 -0.000000 4.316302
LeftHandThumb1 -26.253704 0.000000 33.147579
RightShoulder 8.970097 1.572288 1.776974
RightArm 41.212836 -5.287498 64.092238
RightForeArm -20.569099 0.000000 17.128390
RightHand -1.734877 -0.000000 -12.302047
RightHandThumb1 -24.326973 -0.000000 -32.862282
LeftUpLeg -41.669961 3.395958 -4.549616
LeftLeg 13.127115 -0.000000 -0.000000
LeftFoot -2.429029 29.245134 -6.062763
LeftToeBase 20.253892 -0.000000 -0.000000
RightUpLeg -16.919215 0.411787 9.759104
RightLeg 33.606285 -0.000000 -0.000000
RightFoot -48.538817 -24.960912 21.924603
RightToeBase 22.906657 -0.000000 -0.000000
253
root 19.876544 33.254336 -21.097500 -165.830553 14.379965 -178.190961
Spine 49.593457 16.009611 -3.853816
Head -3.528869 -2.082285 4.190054
LeftShoulder 10.761332 -33.723029 -1.371256
LeftArm 9.492192 25.511570 -69.950853
LeftForeArm -1.650041 -0.000000 8.071045
LeftHand -0.808992 0.000000 4.314153
LeftHandThumb1 -26.253704 0.000000 33.147579
RightShoulder 9.212804 2.035061 1.578048
RightArm 41.451821 -5.151218 64.248307
RightForeArm -20.401954 -0.000000 17.179456
RightHand -1.762945 0.000000 -12.641277
RightHandThumb1 -24.326973 -0.000000 -32.862282
LeftUpLeg -42.979166 4.082189 -4.938400
LeftLeg 13.599071 -0.000000 -0.000000
LeftFoot -2.595493 28.537309 -5.737931
LeftToeBase 20.890260 -0.000000 -0.000000
RightUpLeg -17.695115 1.042853 9.809624
RightLeg 33.205124 -0.000000 -0.000000
RightFoot -48.484130 -25.196190 22.027102
RightToeBase 22.875568 -0.000000 -0.000000
254
root 19.865935 33.275051 -21.203312 -164.689271 14.299709 -178.061168
Spine 49.737459 15.830149 -4.007364
Head -4.434943 -1.937742 4.087080
LeftShoulder 11.240756 -34.020571 -1.470364
LeftArm 10.435670 25.329330 -69.241604
LeftForeArm -1.813753 -0.000000 7.876548
LeftHand -0.788925 -0.000000 4.423223
LeftHandThumb1 -26.253704 0.000000 33.147579
RightShoulder 9.598041 2.449548 1.204661
RightArm 41.833650 -4.970155 64.396036
RightForeArm -20.288941 -0.000000 17.141990
RightHand -1.652097 -0.000000 -12.571998
RightHandThumb1 -24.326973 -0.000000 -32.862282
LeftUpLeg -44.204519 4.240762 -5.152970
LeftLeg 14.090719 -0.000000 -0.000000
LeftFoot -2.742412 28.087030 -5.602680
LeftToeBase 21.150348 -0.000000 -0.000000
RightUpLeg -18.386099 1.166293 9.872705
RightLeg 32.717072 -0.000000 -0.000000
RightFoot -48.363904 -25.291348 22.009184
RightToeBase 22.842298 -0.000000 -0.000000
255
root 19.861260 33.298217 -21.310937 -163.510496 14.269228 -177.885934
Spine 49.888599 15.789679 -4.085748
Head -5.392006 -1.887162 4.049583
LeftShoulder 11.838838 -34.473182 -1.625569
LeftArm 11.200998 25.357176 -68.572516
LeftForeArm -2.089215 -0.000000 7.791141
LeftHand -0.969188 -0.000000 5.334738
LeftHandThumb1 -26.253704 0.000000 33.147579
RightShoulder 9.865957 2.991306 0.868340
RightArm 42.156767 -4.909671 64.481535
RightForeArm -20.244798 -0.000000 17.030480
RightHand -1.666815 -0.000000 -12.949287
RightHandThumb1 -24.326973 -0.000000 -32.862282
LeftUpLeg -45.474512 4.407930 -5.300214
LeftLeg 14.656154 -0.000000 -0.000000
LeftFoot -2.989719 27.678993 -5.505295
LeftToeBase 21.476794 -0.000000 -0.000000
RightUpLeg -19.078560 1.371321 9.967292
RightLeg 32.202268 -0.000000 -0.000000
RightFoot -48.210466 -25.355750 22.096754
RightToeBase 22.786544 -0.000000 -0.000000
